<svg id="Camada_1" data-name="Camada 1" xmlns="http://www.w3.org/2000/svg" viewBox="0 0 995.47 155.29"><defs><style>.cls-1{fill:#11cf01;}</style></defs><path class="cls-1" d="M188.66,110.53a44.88,44.88,0,0,1-89.76,0Z" transform="translate(0.47 -0.12)"/><path class="cls-1" d="M98.9,110.53H-.47V69.22H57.59A41.3,41.3,0,0,1,98.9,110.53Z" transform="translate(0.47 -0.12)"/><path class="cls-1" d="M189.1,41.44a44.88,44.88,0,0,1-89.75,0Z" transform="translate(0.47 -0.12)"/><path class="cls-1" d="M99.35,41.44H0V.12H58A41.32,41.32,0,0,1,99.35,41.44Z" transform="translate(0.47 -0.12)"/><path class="cls-1" d="M222.51,26.55h38.3c31.51,0,47.84,18.07,47.84,50.58s-16.33,50.58-47.84,50.58h-38.3Zm36.14,82.38c20.66,0,27.89-9.54,27.89-31.8s-7.23-31.79-27.89-31.79H244.19v63.59Z" transform="translate(0.47 -0.12)"/><path class="cls-1" d="M315.84,26.55h69.08V45.34h-47.4V68h43.07V84.94H337.52v24h48.85v18.78H315.84Z" transform="translate(0.47 -0.12)"/><path class="cls-1" d="M420.22,45.34H390.89V26.55h80.35V45.34H441.9v82.37H420.22Z" transform="translate(0.47 -0.12)"/><path class="cls-1" d="M476.26,26.55h21.68V127.71H476.26Z" transform="translate(0.47 -0.12)"/><path d="M585.92,96.69H535.7c1.24,12.45,7.53,17.38,18.06,17.38,8.62,0,12-3.7,14-9.58h17.65C581.81,120.64,569.5,129,552.67,129c-18.2,0-35.85-10-35.85-37.07,0-26.69,16.83-37.22,35.71-37.22,18.34,0,33.8,10.12,33.8,37.49A21.35,21.35,0,0,1,585.92,96.69ZM567.44,85.88c-.27-8.89-4.51-16-15.46-16-9.57,0-15.18,5.47-16.28,16Z" transform="translate(0.47 -0.12)"/><path d="M584.14,56.06h20.38l17.79,52H623l17.79-52H661L635.17,127.2H610Z" transform="translate(0.47 -0.12)"/><path d="M727.93,96.69H677.72c1.23,12.45,7.53,17.38,18.06,17.38,8.62,0,12-3.7,14-9.58h17.65c-3.56,16.15-15.88,24.49-32.7,24.49-18.2,0-35.85-10-35.85-37.07,0-26.69,16.83-37.22,35.71-37.22,18.33,0,33.79,10.12,33.79,37.49A20.71,20.71,0,0,1,727.93,96.69ZM709.46,85.88c-.27-8.89-4.51-16-15.46-16-9.57,0-15.18,5.47-16.28,16Z" transform="translate(0.47 -0.12)"/><path d="M803.73,82.05V127.2h-20V86.84c0-10.81-4.79-15.59-13.13-15.59S755.71,76,755.71,86.84V127.2h-20V56.06h20V71h.82c1.23-6.7,8.07-16.28,22.71-16.28C793.06,54.69,803.73,63.58,803.73,82.05Z" transform="translate(0.47 -0.12)"/><path d="M855,112.15v15.6a102.63,102.63,0,0,1-11.22.41c-14.09,0-23.4-6.43-23.4-22.3V71.38h-12V56.06h12V37.72h20V56.06h14.09V71.38H840.4V103c0,5.47,2.05,9.16,8.34,9.16Z" transform="translate(0.47 -0.12)"/><path d="M857.64,91.63c0-25.86,17.78-36.94,35.7-36.94s35.71,11.08,35.71,36.94-17.78,36.94-35.71,36.94S857.64,117.49,857.64,91.63Zm52.67,0c0-14.09-7.39-20.38-17-20.38s-17,6.29-17,20.38,7.39,20.39,17,20.39S910.31,105.72,910.31,91.63Z" transform="translate(0.47 -0.12)"/><path d="M932.34,103.81h17.92c.69,6.84,5.06,10,13,10,6.84,0,11.08-2.47,11.08-7.53,0-3.28-2.05-5.2-6.7-6.29L954.5,97.24c-14.91-3.42-20.11-11.36-20.11-20.93,0-13.82,11.49-21.62,29-21.62,18.89,0,28.74,9.3,28.87,24.63H975.57c-.68-7.12-5.06-9.85-11.63-9.85s-10.67,2.6-10.67,6.56c0,3.56,3.15,5.75,7.66,6.71l13.55,2.87C985.7,88.07,995,93.27,995,106c0,15.87-14.64,22.57-31.88,22.57C943.83,128.57,932.47,120.36,932.34,103.81Z" transform="translate(0.47 -0.12)"/></svg>